<svg xmlns="http://www.w3.org/2000/svg" viewBox="0 0 1920 1080"><path fill="#452263" d="M0 0h1920v1080H0z"/><path fill="#7b3bb2" d="m1327 1080-15.3-25.7c-15.4-25.6-46-77-49-128.5s21.6-103.1 51.1-154.6 63.9-102.9 16.9-154.2c-47-51.3-175.4-102.7-215-154-39.7-51.3 9.3-102.7 9-154.2-.4-51.5-50-103.1-71-154.6s-13.4-102.9-9.5-128.5L1048 0h872V1080Z"/><path fill="#8348b7" d="m1525 1080-37.7-25.7c-37.6-25.6-113-77-176.3-128.5-63.3-51.5-114.7-103.1-122.8-154.6-8.2-51.5 26.8-102.9 40.3-154.2 13.5-51.3 5.5-102.7 45-154s126.5-102.7 172.2-154.2c45.6-51.5 50-103.1 25.5-154.6s-77.9-102.9-104.5-128.5L1340 0h580V1080Z"/><path fill="#8b54bc" d="m1236 1080 2.7-25.7c2.6-25.6 8-77 48.6-128.5C1328 874.3 1404 822.7 1462 771.2c58-51.5 98-102.9 58.5-154.2-39.5-51.3-158.5-102.7-165.3-154-6.9-51.3 98.5-102.7 157.6-154.2 59.2-51.5 72.2-103.1 74.5-154.6 2.4-51.5-6-102.9-10.1-128.5L1573 0h347V1080Z"/><path fill="#9360c0" d="m1401 1080 28-25.7c28-25.6 84-77 94.2-128.5 10.1-51.5-25.5-103.1-4.4-154.6 21.2-51.5 99.2-102.9 123.5-154.2 24.4-51.3-5-102.7-49.1-154-44.2-51.3-103.2-102.7-100.5-154.2 2.6-51.5 67-103.1 78.5-154.6s-29.9-102.9-50.5-128.5L1500 0h420V1080Z"/><path fill="#9a6bc5" d="m1682 1080 21.7-25.7c21.6-25.6 65-77 69.5-128.5s-29.9-103.1-72-154.6C1659 719.7 1609 668.3 1598 617c-11-51.3 17-102.7 19.7-154 2.6-51.3-20-102.7.8-154.2 20.8-51.5 85.2-103.1 77.2-154.6s-88.4-102.9-128.5-128.5L1527 0h393V1080Z"/><path fill="#a277ca" d="m1721 1080 8.2-25.7c8.1-25.6 24.5-77 57-128.5s81.1-103.1 78-154.6c-3.2-51.5-58.2-102.9-83.9-154.2-25.6-51.3-22-102.7-35.5-154s-44.1-102.7-21.6-154.2c22.5-51.5 98.1-103.1 107.8-154.6 9.7-51.5-46.7-102.9-74.8-128.5L1728 0h192V1080Z"/></svg>