<svg id="visual" viewBox="0 0 1080 1920" width="1080" height="1920" xmlns="http://www.w3.org/2000/svg" xmlns:xlink="http://www.w3.org/1999/xlink" version="1.1"><rect x="0" y="0" width="1080" height="1920" fill="#452263"></rect><path d="M0 1444L25.7 1431.7C51.3 1419.3 102.7 1394.7 154.2 1392.2C205.7 1389.7 257.3 1409.3 308.8 1433C360.3 1456.7 411.7 1484.3 463 1446.8C514.3 1409.3 565.7 1306.7 617 1275C668.3 1243.3 719.7 1282.7 771.2 1282.3C822.7 1282 874.3 1242 925.8 1225.2C977.3 1208.3 1028.7 1214.7 1054.3 1217.8L1080 1221L1080 1921L1054.3 1921C1028.7 1921 977.3 1921 925.8 1921C874.3 1921 822.7 1921 771.2 1921C719.7 1921 668.3 1921 617 1921C565.7 1921 514.3 1921 463 1921C411.7 1921 360.3 1921 308.8 1921C257.3 1921 205.7 1921 154.2 1921C102.7 1921 51.3 1921 25.7 1921L0 1921Z" fill="#7b3bb2"></path><path d="M0 1602L25.7 1571.8C51.3 1541.7 102.7 1481.3 154.2 1430.8C205.7 1380.3 257.3 1339.7 308.8 1333.2C360.3 1326.7 411.7 1354.3 463 1365C514.3 1375.7 565.7 1369.3 617 1401C668.3 1432.7 719.7 1502.3 771.2 1538.8C822.7 1575.3 874.3 1578.7 925.8 1559C977.3 1539.3 1028.7 1496.7 1054.3 1475.3L1080 1454L1080 1921L1054.3 1921C1028.7 1921 977.3 1921 925.8 1921C874.3 1921 822.7 1921 771.2 1921C719.7 1921 668.3 1921 617 1921C565.7 1921 514.3 1921 463 1921C411.7 1921 360.3 1921 308.8 1921C257.3 1921 205.7 1921 154.2 1921C102.7 1921 51.3 1921 25.7 1921L0 1921Z" fill="#8348b7"></path><path d="M0 1371L25.7 1373.2C51.3 1375.3 102.7 1379.7 154.2 1412.2C205.7 1444.7 257.3 1505.3 308.8 1551.7C360.3 1598 411.7 1630 463 1598.5C514.3 1567 565.7 1472 617 1466.7C668.3 1461.3 719.7 1545.7 771.2 1592.8C822.7 1640 874.3 1650 925.8 1651.8C977.3 1653.7 1028.7 1647.3 1054.3 1644.2L1080 1641L1080 1921L1054.3 1921C1028.7 1921 977.3 1921 925.8 1921C874.3 1921 822.7 1921 771.2 1921C719.7 1921 668.3 1921 617 1921C565.7 1921 514.3 1921 463 1921C411.7 1921 360.3 1921 308.8 1921C257.3 1921 205.7 1921 154.2 1921C102.7 1921 51.3 1921 25.7 1921L0 1921Z" fill="#8b54bc"></path><path d="M0 1503L25.7 1525.5C51.3 1548 102.7 1593 154.2 1601C205.7 1609 257.3 1580 308.8 1596.8C360.3 1613.7 411.7 1676.3 463 1695.8C514.3 1715.3 565.7 1691.7 617 1656.3C668.3 1621 719.7 1574 771.2 1576.2C822.7 1578.3 874.3 1629.7 925.8 1638.8C977.3 1648 1028.7 1615 1054.3 1598.5L1080 1582L1080 1921L1054.3 1921C1028.7 1921 977.3 1921 925.8 1921C874.3 1921 822.7 1921 771.2 1921C719.7 1921 668.3 1921 617 1921C565.7 1921 514.3 1921 463 1921C411.7 1921 360.3 1921 308.8 1921C257.3 1921 205.7 1921 154.2 1921C102.7 1921 51.3 1921 25.7 1921L0 1921Z" fill="#9360c0"></path><path d="M0 1728L25.7 1745.3C51.3 1762.7 102.7 1797.3 154.2 1800.8C205.7 1804.3 257.3 1776.7 308.8 1742.8C360.3 1709 411.7 1669 463 1660.3C514.3 1651.7 565.7 1674.3 617 1676.5C668.3 1678.7 719.7 1660.3 771.2 1677C822.7 1693.7 874.3 1745.3 925.8 1739C977.3 1732.7 1028.7 1668.3 1054.3 1636.2L1080 1604L1080 1921L1054.3 1921C1028.7 1921 977.3 1921 925.8 1921C874.3 1921 822.7 1921 771.2 1921C719.7 1921 668.3 1921 617 1921C565.7 1921 514.3 1921 463 1921C411.7 1921 360.3 1921 308.8 1921C257.3 1921 205.7 1921 154.2 1921C102.7 1921 51.3 1921 25.7 1921L0 1921Z" fill="#9a6bc5"></path><path d="M0 1759L25.7 1765.5C51.3 1772 102.7 1785 154.2 1811C205.7 1837 257.3 1876 308.8 1873.5C360.3 1871 411.7 1827 463 1806.5C514.3 1786 565.7 1789 617 1778.2C668.3 1767.3 719.7 1742.7 771.2 1760.7C822.7 1778.7 874.3 1839.3 925.8 1847C977.3 1854.7 1028.7 1809.3 1054.3 1786.7L1080 1764L1080 1921L1054.3 1921C1028.7 1921 977.3 1921 925.8 1921C874.3 1921 822.7 1921 771.2 1921C719.7 1921 668.3 1921 617 1921C565.7 1921 514.3 1921 463 1921C411.7 1921 360.3 1921 308.8 1921C257.3 1921 205.7 1921 154.2 1921C102.7 1921 51.3 1921 25.7 1921L0 1921Z" fill="#a277ca"></path></svg>