<svg id="visual" viewBox="0 0 1920 1080" width="1920" height="1080"  xmlns="http://www.w3.org/2000/svg" xmlns:xlink="http://www.w3.org/1999/xlink" version="1.1"><rect x="0" y="0" width="1920" height="1080" fill="#452263"></rect><path d="M1327 1080L1311.7 1054.3C1296.3 1028.7 1265.7 977.3 1262.7 925.8C1259.7 874.3 1284.3 822.7 1313.8 771.2C1343.3 719.7 1377.7 668.3 1330.7 617C1283.7 565.7 1155.3 514.3 1115.7 463C1076 411.7 1125 360.3 1124.7 308.8C1124.3 257.3 1074.7 205.7 1053.7 154.2C1032.7 102.7 1040.3 51.3 1044.2 25.7L1048 0L1920 0L1920 25.7C1920 51.3 1920 102.7 1920 154.2C1920 205.7 1920 257.3 1920 308.8C1920 360.3 1920 411.7 1920 463C1920 514.3 1920 565.7 1920 617C1920 668.3 1920 719.7 1920 771.2C1920 822.7 1920 874.3 1920 925.8C1920 977.3 1920 1028.7 1920 1054.3L1920 1080Z" fill="#7b3bb2"></path><path d="M1525 1080L1487.3 1054.3C1449.7 1028.7 1374.3 977.3 1311 925.8C1247.7 874.3 1196.3 822.7 1188.2 771.2C1180 719.7 1215 668.3 1228.5 617C1242 565.7 1234 514.3 1273.5 463C1313 411.7 1400 360.3 1445.7 308.8C1491.3 257.3 1495.7 205.7 1471.2 154.2C1446.7 102.7 1393.3 51.3 1366.7 25.7L1340 0L1920 0L1920 25.7C1920 51.3 1920 102.7 1920 154.2C1920 205.7 1920 257.3 1920 308.8C1920 360.3 1920 411.7 1920 463C1920 514.3 1920 565.7 1920 617C1920 668.3 1920 719.7 1920 771.2C1920 822.7 1920 874.3 1920 925.8C1920 977.3 1920 1028.7 1920 1054.3L1920 1080Z" fill="#8348b7"></path><path d="M1236 1080L1238.7 1054.3C1241.3 1028.7 1246.7 977.3 1287.3 925.8C1328 874.3 1404 822.7 1462 771.2C1520 719.7 1560 668.3 1520.5 617C1481 565.7 1362 514.3 1355.2 463C1348.3 411.7 1453.7 360.3 1512.8 308.8C1572 257.3 1585 205.7 1587.3 154.2C1589.7 102.7 1581.3 51.3 1577.2 25.7L1573 0L1920 0L1920 25.7C1920 51.3 1920 102.7 1920 154.2C1920 205.7 1920 257.3 1920 308.8C1920 360.3 1920 411.7 1920 463C1920 514.3 1920 565.7 1920 617C1920 668.3 1920 719.7 1920 771.2C1920 822.7 1920 874.3 1920 925.8C1920 977.3 1920 1028.7 1920 1054.3L1920 1080Z" fill="#8b54bc"></path><path d="M1401 1080L1429 1054.3C1457 1028.7 1513 977.3 1523.2 925.8C1533.3 874.3 1497.7 822.7 1518.8 771.2C1540 719.7 1618 668.3 1642.3 617C1666.7 565.7 1637.3 514.3 1593.2 463C1549 411.7 1490 360.3 1492.7 308.8C1495.3 257.3 1559.7 205.7 1571.2 154.2C1582.7 102.7 1541.3 51.3 1520.7 25.7L1500 0L1920 0L1920 25.7C1920 51.3 1920 102.7 1920 154.2C1920 205.7 1920 257.3 1920 308.8C1920 360.3 1920 411.7 1920 463C1920 514.3 1920 565.7 1920 617C1920 668.3 1920 719.7 1920 771.2C1920 822.7 1920 874.3 1920 925.8C1920 977.3 1920 1028.7 1920 1054.3L1920 1080Z" fill="#9360c0"></path><path d="M1682 1080L1703.7 1054.3C1725.3 1028.7 1768.7 977.3 1773.2 925.8C1777.7 874.3 1743.3 822.7 1701.2 771.2C1659 719.7 1609 668.3 1598 617C1587 565.7 1615 514.3 1617.7 463C1620.3 411.7 1597.7 360.3 1618.5 308.8C1639.3 257.3 1703.7 205.7 1695.7 154.2C1687.7 102.7 1607.3 51.3 1567.2 25.7L1527 0L1920 0L1920 25.7C1920 51.3 1920 102.7 1920 154.2C1920 205.7 1920 257.3 1920 308.8C1920 360.3 1920 411.7 1920 463C1920 514.3 1920 565.7 1920 617C1920 668.3 1920 719.7 1920 771.2C1920 822.7 1920 874.3 1920 925.8C1920 977.3 1920 1028.7 1920 1054.3L1920 1080Z" fill="#9a6bc5"></path><path d="M1721 1080L1729.2 1054.3C1737.3 1028.7 1753.7 977.3 1786.2 925.8C1818.7 874.3 1867.3 822.7 1864.2 771.2C1861 719.7 1806 668.3 1780.3 617C1754.7 565.7 1758.3 514.3 1744.8 463C1731.3 411.7 1700.7 360.3 1723.2 308.8C1745.7 257.3 1821.3 205.7 1831 154.2C1840.7 102.7 1784.3 51.3 1756.2 25.7L1728 0L1920 0L1920 25.7C1920 51.3 1920 102.7 1920 154.2C1920 205.7 1920 257.3 1920 308.8C1920 360.3 1920 411.7 1920 463C1920 514.3 1920 565.7 1920 617C1920 668.3 1920 719.7 1920 771.2C1920 822.7 1920 874.3 1920 925.8C1920 977.3 1920 1028.7 1920 1054.3L1920 1080Z" fill="#a277ca"></path></svg>