<svg id="visual" viewBox="0 0 900 675"  width="900" height="675" xmlns="http://www.w3.org/2000/svg" xmlns:xlink="http://www.w3.org/1999/xlink" version="1.1"><rect x="0" y="0" width="900" height="675" fill="#452263"></rect><path d="M623 675L615.8 659C608.7 643 594.3 611 592.8 578.8C591.3 546.7 602.7 514.3 616.5 482.2C630.3 450 646.7 418 624.7 385.8C602.7 353.7 542.3 321.3 523.7 289.2C505 257 528 225 527.8 192.8C527.7 160.7 504.3 128.3 494.5 96.2C484.7 64 488.3 32 490.2 16L492 0L900 0L900 16C900 32 900 64 900 96.2C900 128.3 900 160.7 900 192.8C900 225 900 257 900 289.2C900 321.3 900 353.7 900 385.8C900 418 900 450 900 482.2C900 514.3 900 546.7 900 578.8C900 611 900 643 900 659L900 675Z" fill="#7b3bb2"></path><path d="M716 675L698.2 659C680.3 643 644.7 611 614.8 578.8C585 546.7 561 514.3 557.2 482.2C553.3 450 569.7 418 576 385.8C582.3 353.7 578.7 321.3 597.3 289.2C616 257 657 225 678.5 192.8C700 160.7 702 128.3 690.5 96.2C679 64 654 32 641.5 16L629 0L900 0L900 16C900 32 900 64 900 96.2C900 128.3 900 160.7 900 192.8C900 225 900 257 900 289.2C900 321.3 900 353.7 900 385.8C900 418 900 450 900 482.2C900 514.3 900 546.7 900 578.8C900 611 900 643 900 659L900 675Z" fill="#8348b7"></path><path d="M580 675L581.3 659C582.7 643 585.3 611 604.3 578.8C623.3 546.7 658.7 514.3 685.7 482.2C712.7 450 731.3 418 712.8 385.8C694.3 353.7 638.7 321.3 635.5 289.2C632.3 257 681.7 225 709.3 192.8C737 160.7 743 128.3 744.2 96.2C745.3 64 741.7 32 739.8 16L738 0L900 0L900 16C900 32 900 64 900 96.2C900 128.3 900 160.7 900 192.8C900 225 900 257 900 289.2C900 321.3 900 353.7 900 385.8C900 418 900 450 900 482.2C900 514.3 900 546.7 900 578.8C900 611 900 643 900 659L900 675Z" fill="#8b54bc"></path><path d="M657 675L670.2 659C683.3 643 709.7 611 714.5 578.8C719.3 546.7 702.7 514.3 712.5 482.2C722.3 450 758.7 418 770 385.8C781.3 353.7 767.7 321.3 747 289.2C726.3 257 698.7 225 700 192.8C701.3 160.7 731.7 128.3 737 96.2C742.3 64 722.7 32 712.8 16L703 0L900 0L900 16C900 32 900 64 900 96.2C900 128.3 900 160.7 900 192.8C900 225 900 257 900 289.2C900 321.3 900 353.7 900 385.8C900 418 900 450 900 482.2C900 514.3 900 546.7 900 578.8C900 611 900 643 900 659L900 675Z" fill="#9360c0"></path><path d="M789 675L799.2 659C809.3 643 829.7 611 831.8 578.8C834 546.7 818 514.3 798.2 482.2C778.3 450 754.7 418 749.5 385.8C744.3 353.7 757.7 321.3 759 289.2C760.3 257 749.7 225 759.3 192.8C769 160.7 799 128.3 795.2 96.2C791.3 64 753.7 32 734.8 16L716 0L900 0L900 16C900 32 900 64 900 96.2C900 128.3 900 160.7 900 192.8C900 225 900 257 900 289.2C900 321.3 900 353.7 900 385.8C900 418 900 450 900 482.2C900 514.3 900 546.7 900 578.8C900 611 900 643 900 659L900 675Z" fill="#9a6bc5"></path><path d="M807 675L810.8 659C814.7 643 822.3 611 837.7 578.8C853 546.7 876 514.3 874.7 482.2C873.3 450 847.7 418 835.5 385.8C823.3 353.7 824.7 321.3 818.2 289.2C811.7 257 797.3 225 808 192.8C818.7 160.7 854.3 128.3 858.8 96.2C863.3 64 836.7 32 823.3 16L810 0L900 0L900 16C900 32 900 64 900 96.2C900 128.3 900 160.7 900 192.8C900 225 900 257 900 289.2C900 321.3 900 353.7 900 385.8C900 418 900 450 900 482.2C900 514.3 900 546.7 900 578.8C900 611 900 643 900 659L900 675Z" fill="#a277ca"></path></svg>