<svg id="visual" viewBox="0 0 600 900" width="600" height="900" xmlns="http://www.w3.org/2000/svg" xmlns:xlink="http://www.w3.org/1999/xlink" version="1.1"><path d="M0 608L14.3 624C28.7 640 57.3 672 85.8 687.3C114.3 702.7 142.7 701.3 171.2 697C199.7 692.7 228.3 685.3 257 669C285.7 652.7 314.3 627.3 343 626.7C371.7 626 400.3 650 428.8 651.5C457.3 653 485.7 632 514.2 622.2C542.7 612.3 571.3 613.7 585.7 614.3L600 615L600 901L585.7 901C571.3 901 542.7 901 514.2 901C485.7 901 457.3 901 428.8 901C400.3 901 371.7 901 343 901C314.3 901 285.7 901 257 901C228.3 901 199.7 901 171.2 901C142.7 901 114.3 901 85.8 901C57.3 901 28.7 901 14.3 901L0 901Z" fill="#1a191f"></path><path d="M0 741L14.3 737.8C28.7 734.7 57.3 728.3 85.8 723.7C114.3 719 142.7 716 171.2 704.8C199.7 693.7 228.3 674.3 257 679.3C285.7 684.3 314.3 713.7 343 717.5C371.7 721.3 400.3 699.7 428.8 688.3C457.3 677 485.7 676 514.2 687.3C542.7 698.7 571.3 722.3 585.7 734.2L600 746L600 901L585.7 901C571.3 901 542.7 901 514.2 901C485.7 901 457.3 901 428.8 901C400.3 901 371.7 901 343 901C314.3 901 285.7 901 257 901C228.3 901 199.7 901 171.2 901C142.7 901 114.3 901 85.8 901C57.3 901 28.7 901 14.3 901L0 901Z" fill="#221d31"></path><path d="M0 714L14.3 712.7C28.7 711.3 57.3 708.7 85.8 709.2C114.3 709.7 142.7 713.3 171.2 715.8C199.7 718.3 228.3 719.7 257 724C285.7 728.3 314.3 735.7 343 740.2C371.7 744.7 400.3 746.3 428.8 754C457.3 761.7 485.7 775.3 514.2 780.3C542.7 785.3 571.3 781.7 585.7 779.8L600 778L600 901L585.7 901C571.3 901 542.7 901 514.2 901C485.7 901 457.3 901 428.8 901C400.3 901 371.7 901 343 901C314.3 901 285.7 901 257 901C228.3 901 199.7 901 171.2 901C142.7 901 114.3 901 85.8 901C57.3 901 28.7 901 14.3 901L0 901Z" fill="#2b2042"></path><path d="M0 793L14.3 788.3C28.7 783.7 57.3 774.3 85.8 779.7C114.3 785 142.7 805 171.2 811.8C199.7 818.7 228.3 812.3 257 801.5C285.7 790.7 314.3 775.3 343 767.7C371.7 760 400.3 760 428.8 764C457.3 768 485.7 776 514.2 781.2C542.7 786.3 571.3 788.7 585.7 789.8L600 791L600 901L585.7 901C571.3 901 542.7 901 514.2 901C485.7 901 457.3 901 428.8 901C400.3 901 371.7 901 343 901C314.3 901 285.7 901 257 901C228.3 901 199.7 901 171.2 901C142.7 901 114.3 901 85.8 901C57.3 901 28.7 901 14.3 901L0 901Z" fill="#372253"></path><path d="M0 813L14.3 814.2C28.7 815.3 57.3 817.7 85.8 817.3C114.3 817 142.7 814 171.2 818.8C199.7 823.7 228.3 836.3 257 837.5C285.7 838.7 314.3 828.3 343 827.5C371.7 826.7 400.3 835.3 428.8 838.7C457.3 842 485.7 840 514.2 835.7C542.7 831.3 571.3 824.7 585.7 821.3L600 818L600 901L585.7 901C571.3 901 542.7 901 514.2 901C485.7 901 457.3 901 428.8 901C400.3 901 371.7 901 343 901C314.3 901 285.7 901 257 901C228.3 901 199.7 901 171.2 901C142.7 901 114.3 901 85.8 901C57.3 901 28.7 901 14.3 901L0 901Z" fill="#452263"></path></svg>