<svg id="visual" viewBox="0 0 960 540" width="960" height="540" xmlns="http://www.w3.org/2000/svg" xmlns:xlink="http://www.w3.org/1999/xlink" version="1.1"><rect x="0" y="0" width="960" height="540" fill="#1a191f"></rect><defs><linearGradient id="grad1_0" x1="43.8%" y1="0%" x2="100%" y2="100%"><stop offset="14.444444444444446%" stop-color="#1a191f" stop-opacity="1"></stop><stop offset="85.55555555555554%" stop-color="#1a191f" stop-opacity="1"></stop></linearGradient></defs><defs><linearGradient id="grad2_0" x1="0%" y1="0%" x2="56.3%" y2="100%"><stop offset="14.444444444444446%" stop-color="#1a191f" stop-opacity="1"></stop><stop offset="85.55555555555554%" stop-color="#1a191f" stop-opacity="1"></stop></linearGradient></defs><g transform="translate(960, 0)"><path d="M0 324C-58.3 316.4 -116.5 308.9 -162 280.6C-207.5 252.3 -240.1 203.2 -265 153C-289.9 102.8 -306.9 51.4 -324 0L0 0Z" fill="#372253"></path></g><g transform="translate(0, 540)"><path d="M0 -324C49.3 -303.2 98.5 -282.5 149 -258.1C199.5 -233.7 251.2 -205.6 280.6 -162C310 -118.4 317 -59.2 324 0L0 0Z" fill="#372253"></path></g></svg>