<svg id="visual" viewBox="0 0 540 960" width="540" height="960" xmlns="http://www.w3.org/2000/svg" xmlns:xlink="http://www.w3.org/1999/xlink" version="1.1"><rect x="0" y="0" width="540" height="960" fill="#1a191f"></rect><defs><linearGradient id="grad1_0" x1="0%" y1="0%" x2="100%" y2="100%"><stop offset="30%" stop-color="#1a191f" stop-opacity="1"></stop><stop offset="70%" stop-color="#1a191f" stop-opacity="1"></stop></linearGradient></defs><defs><linearGradient id="grad2_0" x1="0%" y1="0%" x2="100%" y2="100%"><stop offset="30%" stop-color="#1a191f" stop-opacity="1"></stop><stop offset="70%" stop-color="#1a191f" stop-opacity="1"></stop></linearGradient></defs><g transform="translate(540, 0)"><path d="M0 324C-44.6 321.8 -89.1 319.6 -124 299.3C-158.9 279.1 -184 240.9 -207.9 207.9C-231.8 174.9 -254.3 147.1 -273.5 113.3C-292.6 79.5 -308.3 39.7 -324 0L0 0Z" fill="#372253"></path></g><g transform="translate(0, 960)"><path d="M0 -324C40.1 -313 80.2 -302 119 -287.3C157.8 -272.7 195.4 -254.3 227 -227C258.6 -199.6 284.2 -163.3 299.3 -124C314.5 -84.7 319.3 -42.3 324 0L0 0Z" fill="#372253"></path></g></svg>