<svg id="visual" viewBox="0 0 960 540" width="960" height="540" xmlns="http://www.w3.org/2000/svg" xmlns:xlink="http://www.w3.org/1999/xlink" version="1.1"><path d="M574 540L595.2 527.2C616.3 514.3 658.7 488.7 679 463C699.3 437.3 697.7 411.7 691.8 386C686 360.3 676 334.7 654.2 308.8C632.3 283 598.7 257 597.8 231.2C597 205.3 629 179.7 631 154C633 128.3 605 102.7 592 77C579 51.3 581 25.7 582 12.8L583 0L960 0L960 12.8C960 25.7 960 51.3 960 77C960 102.7 960 128.3 960 154C960 179.7 960 205.3 960 231.2C960 257 960 283 960 308.8C960 334.7 960 360.3 960 386C960 411.7 960 437.3 960 463C960 488.7 960 514.3 960 527.2L960 540Z" fill="#1a191f"></path><path d="M750 540L745.8 527.2C741.7 514.3 733.3 488.7 727.3 463C721.3 437.3 717.7 411.7 702.8 386C688 360.3 662 334.7 668.5 308.8C675 283 714 257 719 231.2C724 205.3 695 179.7 679.8 154C664.7 128.3 663.3 102.7 678.3 77C693.3 51.3 724.7 25.7 740.3 12.8L756 0L960 0L960 12.8C960 25.7 960 51.3 960 77C960 102.7 960 128.3 960 154C960 179.7 960 205.3 960 231.2C960 257 960 283 960 308.8C960 334.7 960 360.3 960 386C960 411.7 960 437.3 960 463C960 488.7 960 514.3 960 527.2L960 540Z" fill="#221d31"></path><path d="M715 540L713 527.2C711 514.3 707 488.7 707.5 463C708 437.3 713 411.7 716.5 386C720 360.3 722 334.7 727.8 308.8C733.7 283 743.3 257 749.3 231.2C755.3 205.3 757.7 179.7 767.8 154C778 128.3 796 102.7 802.7 77C809.3 51.3 804.7 25.7 802.3 12.8L800 0L960 0L960 12.8C960 25.7 960 51.3 960 77C960 102.7 960 128.3 960 154C960 179.7 960 205.3 960 231.2C960 257 960 283 960 308.8C960 334.7 960 360.3 960 386C960 411.7 960 437.3 960 463C960 488.7 960 514.3 960 527.2L960 540Z" fill="#2b2042"></path><path d="M819 540L812.8 527.2C806.7 514.3 794.3 488.7 801.7 463C809 437.3 836 411.7 845.2 386C854.3 360.3 845.7 334.7 831.2 308.8C816.7 283 796.3 257 786 231.2C775.7 205.3 775.3 179.7 780.7 154C786 128.3 797 102.7 804 77C811 51.3 814 25.7 815.5 12.8L817 0L960 0L960 12.8C960 25.7 960 51.3 960 77C960 102.7 960 128.3 960 154C960 179.7 960 205.3 960 231.2C960 257 960 283 960 308.8C960 334.7 960 360.3 960 386C960 411.7 960 437.3 960 463C960 488.7 960 514.3 960 527.2L960 540Z" fill="#372253"></path><path d="M846 540L847.7 527.2C849.3 514.3 852.7 488.7 852.2 463C851.7 437.3 847.3 411.7 853.7 386C860 360.3 877 334.7 878.7 308.8C880.3 283 866.7 257 865.5 231.2C864.3 205.3 875.7 179.7 880.2 154C884.7 128.3 882.3 102.7 876.7 77C871 51.3 862 25.7 857.5 12.8L853 0L960 0L960 12.8C960 25.7 960 51.3 960 77C960 102.7 960 128.3 960 154C960 179.7 960 205.3 960 231.2C960 257 960 283 960 308.8C960 334.7 960 360.3 960 386C960 411.7 960 437.3 960 463C960 488.7 960 514.3 960 527.2L960 540Z" fill="#452263"></path></svg>