<svg id="visual" viewBox="0 0 900 675" width="900" height="675" xmlns="http://www.w3.org/2000/svg" xmlns:xlink="http://www.w3.org/1999/xlink" version="1.1"><path d="M0 402L21.5 416.8C43 431.7 86 461.3 128.8 475.7C171.7 490 214.3 489 257.2 485C300 481 343 474 385.8 458.5C428.7 443 471.3 419 514.2 418.3C557 417.7 600 440.3 642.8 441.8C685.7 443.3 728.3 423.7 771.2 414.5C814 405.3 857 406.7 878.5 407.3L900 408L900 676L878.5 676C857 676 814 676 771.2 676C728.3 676 685.7 676 642.8 676C600 676 557 676 514.2 676C471.3 676 428.7 676 385.8 676C343 676 300 676 257.2 676C214.3 676 171.7 676 128.8 676C86 676 43 676 21.5 676L0 676Z" fill="#1a191f"></path><path d="M0 526L21.5 523C43 520 86 514 128.8 509.7C171.7 505.3 214.3 502.7 257.2 492.2C300 481.7 343 463.3 385.8 468C428.7 472.7 471.3 500.3 514.2 504C557 507.7 600 487.3 642.8 476.7C685.7 466 728.3 465 771.2 475.5C814 486 857 508 878.5 519L900 530L900 676L878.5 676C857 676 814 676 771.2 676C728.3 676 685.7 676 642.8 676C600 676 557 676 514.2 676C471.3 676 428.7 676 385.8 676C343 676 300 676 257.2 676C214.3 676 171.7 676 128.8 676C86 676 43 676 21.5 676L0 676Z" fill="#221d31"></path><path d="M0 501L21.5 499.7C43 498.3 86 495.7 128.8 496C171.7 496.3 214.3 499.7 257.2 502.2C300 504.7 343 506.3 385.8 510.5C428.7 514.7 471.3 521.3 514.2 525.5C557 529.7 600 531.3 642.8 538.5C685.7 545.7 728.3 558.3 771.2 563C814 567.7 857 564.3 878.5 562.7L900 561L900 676L878.5 676C857 676 814 676 771.2 676C728.3 676 685.7 676 642.8 676C600 676 557 676 514.2 676C471.3 676 428.7 676 385.8 676C343 676 300 676 257.2 676C214.3 676 171.7 676 128.8 676C86 676 43 676 21.5 676L0 676Z" fill="#2b2042"></path><path d="M0 574L21.5 569.7C43 565.3 86 556.7 128.8 561.8C171.7 567 214.3 586 257.2 592.5C300 599 343 593 385.8 582.8C428.7 572.7 471.3 558.3 514.2 551C557 543.7 600 543.3 642.8 547C685.7 550.7 728.3 558.3 771.2 563.3C814 568.3 857 570.7 878.5 571.8L900 573L900 676L878.5 676C857 676 814 676 771.2 676C728.3 676 685.7 676 642.8 676C600 676 557 676 514.2 676C471.3 676 428.7 676 385.8 676C343 676 300 676 257.2 676C214.3 676 171.7 676 128.8 676C86 676 43 676 21.5 676L0 676Z" fill="#372253"></path><path d="M0 593L21.5 594.2C43 595.3 86 597.7 128.8 597.3C171.7 597 214.3 594 257.2 598.5C300 603 343 615 385.8 616.2C428.7 617.3 471.3 607.7 514.2 606.8C557 606 600 614 642.8 617.2C685.7 620.3 728.3 618.7 771.2 614.7C814 610.7 857 604.3 878.5 601.2L900 598L900 676L878.5 676C857 676 814 676 771.2 676C728.3 676 685.7 676 642.8 676C600 676 557 676 514.2 676C471.3 676 428.7 676 385.8 676C343 676 300 676 257.2 676C214.3 676 171.7 676 128.8 676C86 676 43 676 21.5 676L0 676Z" fill="#452263"></path></svg>