<svg id="visual" viewBox="0 0 960 540" width="960" height="540" xmlns="http://www.w3.org/2000/svg" xmlns:xlink="http://www.w3.org/1999/xlink" version="1.1"><rect x="0" y="0" width="960" height="540" fill="#1a191f"></rect><defs><linearGradient id="grad1_0" x1="43.8%" y1="0%" x2="100%" y2="100%"><stop offset="14.444444444444446%" stop-color="#1a191f" stop-opacity="1"></stop><stop offset="85.55555555555554%" stop-color="#1a191f" stop-opacity="1"></stop></linearGradient></defs><defs><linearGradient id="grad2_0" x1="0%" y1="0%" x2="56.3%" y2="100%"><stop offset="14.444444444444446%" stop-color="#1a191f" stop-opacity="1"></stop><stop offset="85.55555555555554%" stop-color="#1a191f" stop-opacity="1"></stop></linearGradient></defs><g transform="translate(960, 0)"><path d="M0 324C-33.2 296.6 -66.5 269.1 -106.4 256.8C-146.3 244.5 -193 247.4 -227.7 227.7C-262.4 208 -285.3 165.7 -299.3 124C-313.4 82.3 -318.7 41.1 -324 0L0 0Z" fill="#372253"></path></g><g transform="translate(0, 540)"><path d="M0 -324C42.9 -319.6 85.7 -315.2 124 -299.3C162.3 -283.5 195.9 -256.2 225.6 -225.6C255.2 -194.9 280.8 -161 296.6 -122.8C312.3 -84.7 318.2 -42.3 324 0L0 0Z" fill="#372253"></path></g></svg>